<?xml version="1.0" encoding="iso-8859-1"?>
<!-- Uploaded to: SVG Repo, www.svgrepo.com, Generator: SVG Repo Mixer Tools -->
<svg fill="#000000" height="800px" width="800px" version="1.1" id="Layer_1" xmlns="http://www.w3.org/2000/svg" xmlns:xlink="http://www.w3.org/1999/xlink" 
	 viewBox="0 0 512.001 512.001" xml:space="preserve">
<g>
	<g>
		<circle cx="209.441" cy="42.141" r="42.141"/>
	</g>
</g>
<g>
	<g>
		<path d="M396.14,11.25L282.926,31.139c-2.909,0.511-5.036,3.037-5.036,5.99c0,11.415,0,6.99,0,18.404
			c0,2.96,2.122,5.477,5.036,5.99l21.347,3.75l16.986,45.845l-8.99,19.778l-30.906-27.382c-3.658-3.241-8.36-5.055-13.245-5.112
			l-24.143-0.284l-22.562,58.513l2.727-19.989c0.422-1.99,0.116-4.065-0.864-5.846l-8.267-15.034l7.334-13.34
			c1.093-1.988-0.348-4.429-2.62-4.429h-20.152c-2.269,0-3.714,2.438-2.62,4.429l7.35,13.368l-8.281,15.062
			c-0.961,1.748-1.276,3.78-0.887,5.737l2.485,19.357l-22.452-58.231h-20.406c-26.398,0-48.735,21.478-48.868,47.876v149.38
			c-0.056,11.229,9.001,20.378,20.23,20.435c0.036,0,0.069,0.001,0.105,0.001c11.181-0.001,20.65-9.037,20.706-20.231V145.795
			c0.012-2.226,2.197-4.02,4.42-4.014c2.224,0.006,4.023,1.81,4.023,4.035c0.001,48.59,0.009,319.558,0.009,341.785
			c0,13.476,10.925,24.4,24.4,24.4c13.475,0,24.4-10.924,24.4-24.4v-195.03h10.534v195.03c0,13.476,10.925,24.4,24.4,24.4
			c13.475,0,24.179-10.924,24.179-24.4c0-72.09,0-273.858,0-345.958l42.609,37.946c10.256,9.088,26.351,5.612,31.995-6.805
			l28.156-61.949c4.646-10.223,0.127-22.278-10.096-26.924c-6.786-3.085-14.369-2.11-20.067,1.872l-5.926-15.995l66.174,11.624
			c5.208,0.915,9.97-3.115,9.97-8.363c0.001-14.639,0.001-38.729,0.001-53.437C406.11,14.338,401.345,10.337,396.14,11.25z"/>
	</g>
</g>
</svg>